<svg width="1544" height="1009" xmlns="http://www.w3.org/2000/svg">
  <g fill="none" fill-rule="evenodd">
    <path stroke="#767676" stroke-width="8" stroke-linecap="round" stroke-linejoin="round" d="M941.44 622.957h63.785c17.614 0 31.893 14.292 31.893 31.921v63.843c0 17.63-14.279 31.92-31.893 31.92H941.44c-17.614 0-31.893-14.29-31.893-31.92v-63.843c0-17.63 14.279-31.921 31.893-31.921h0ZM204.321 391.315h63.786c17.614 0 31.893 14.292 31.893 31.921v63.843c0 17.63-14.279 31.921-31.893 31.921h-63.786c-17.614 0-31.893-14.292-31.893-31.921v-63.843c0-17.63 14.28-31.92 31.893-31.92h0ZM721.893 391h63.786c17.614 0 31.893 14.292 31.893 31.921v63.843c0 17.63-14.28 31.92-31.893 31.92h-63.786c-17.614 0-31.893-14.29-31.893-31.92V422.92c0-17.63 14.279-31.921 31.893-31.921h0ZM494.893 176h63.786c17.614 0 31.893 14.292 31.893 31.921v63.858c0 17.63-14.28 31.92-31.893 31.92h-63.786c-17.614 0-31.893-14.29-31.893-31.92v-63.843c0-17.63 14.279-31.921 31.893-31.921V176h0ZM718.159 239.857h255.174c35.228 0 63.785 28.584 63.785 63.843v95.779c0 35.259-28.557 63.842-63.785 63.842h-63.786M781.96 686.8H526.786c-35.228 0-63.786-28.584-63.786-63.843v-95.779c0-16.932 6.72-33.17 18.682-45.143a63.757 63.757 0 0 1 45.104-18.7h63.786M1540 169l-295.214-.2c-35.228 0-63.786-28.584-63.786-63.843V4M334 240l-191.214-.2C107.558 239.8 79 211.215 79 175.956v-45.779C79 112 73 100 62 87 51 74 38 66 16 66H4M1147 1005l-.2-12.214c0-35.228-28.584-63.786-63.843-63.786h-45.779C1019 929 1007 923 994 912c-13-11-21-24-21-46v-12M237 612l-.42 218.594c0 35.228 28.583 63.786 63.843 63.786H396.2c16.932 0 36.179 10 45.179 19s19 22 19 44L460 1005M1127.29 688.67l218.594.42c35.228 0 63.786-28.584 63.786-63.843v-95.779c0-16.932 10-36.178 19-45.178s22-19 44-19L1540 465" />
    <path fill="#767676" d="M237.546 452.945c6.175 0 14.311-2.424 24.408-7.271V435c-10.56 5.065-18.696 7.597-24.408 7.597-5.68-.217-13.863-2.75-24.546-7.597v10.674c10.189 4.847 18.371 7.27 24.546 7.27ZM262 479v-10.674c-10.158-4.847-18.325-7.27-24.5-7.27-6.175 0-14.326 2.423-24.454 7.27V479c10.59-5.065 18.742-7.597 24.454-7.597 5.681.217 13.848 2.75 24.5 7.597Z" />
    <path fill="#767676" d="M540.4 233.846c2.816 0 5.12-.85 6.912-2.548 1.792-1.699 2.688-3.894 2.688-6.586 0-2.885-.896-5.225-2.688-7.02-1.792-1.795-4.096-2.692-6.912-2.692s-5.12.897-6.912 2.692c-1.792 1.795-2.688 4.135-2.688 7.02 0 2.692.896 4.887 2.688 6.586 1.792 1.699 4.096 2.548 6.912 2.548Zm-28.8 0c2.816 0 5.12-.85 6.912-2.548 1.792-1.699 2.688-3.894 2.688-6.586 0-2.885-.896-5.225-2.688-7.02-1.792-1.795-4.096-2.692-6.912-2.692s-5.12.897-6.912 2.692c-1.792 1.795-2.688 4.135-2.688 7.02 0 2.692.896 4.887 2.688 6.586 1.792 1.699 4.096 2.548 6.912 2.548Zm0 31.154c2.816 0 5.12-.85 6.912-2.548 1.792-1.699 2.688-3.894 2.688-6.587 0-2.884-.896-5.224-2.688-7.019-1.792-1.795-4.096-2.692-6.912-2.692s-5.12.897-6.912 2.692c-1.792 1.795-2.688 4.135-2.688 7.02 0 2.692.896 4.887 2.688 6.586 1.792 1.699 4.096 2.548 6.912 2.548Zm28.8 0c2.816 0 5.12-.85 6.912-2.548 1.792-1.699 2.688-3.894 2.688-6.587 0-2.884-.896-5.224-2.688-7.019-1.792-1.795-4.096-2.692-6.912-2.692s-5.12.897-6.912 2.692c-1.792 1.795-2.688 4.135-2.688 7.02 0 2.692.896 4.887 2.688 6.586 1.792 1.699 4.096 2.548 6.912 2.548Z" />
    <path fill="#767676" d="m953.59 715 5.59-5.59a23.721 23.721 0 0 0 5.12 2.912c2.975 1.253 6.193 1.88 9.653 1.88 3.46 0 6.678-.627 9.653-1.88 2.975-1.252 5.7-3.1 8.174-5.542 2.474-2.474 4.321-5.199 5.542-8.174 1.222-2.975 1.832-6.17 1.832-9.583 0-3.507-.61-6.748-1.832-9.723a25.309 25.309 0 0 0-2.912-5.12l5.59-5.59-5.59-5.59-5.59 5.59a23.675 23.675 0 0 0-5.214-3.053c-2.975-1.253-6.193-1.88-9.653-1.88-3.46 0-6.678.627-9.653 1.88-2.975 1.252-5.7 3.116-8.174 5.59-2.473 2.473-4.321 5.198-5.542 8.173-1.222 2.975-1.832 6.216-1.832 9.723 0 3.414.61 6.608 1.832 9.583a22.315 22.315 0 0 0 3.006 5.214l-5.59 5.59 5.59 5.59Zm5.825-17.005a12.622 12.622 0 0 1-1.316-2.49c-.845-2.003-1.268-4.164-1.268-6.482 0-2.41.415-4.619 1.245-6.623.83-2.004 2.09-3.852 3.781-5.543 1.66-1.66 3.508-2.928 5.543-3.805 2.036-.845 4.22-1.268 6.553-1.268s4.517.423 6.553 1.268c.877.376 1.722.83 2.536 1.363l-23.627 23.58Zm14.538 8.127c-2.333 0-4.517-.423-6.553-1.268a19.31 19.31 0 0 1-2.395-1.269l23.58-23.58c.47.782.877 1.581 1.222 2.395.845 2.004 1.268 4.212 1.268 6.623 0 2.318-.415 4.479-1.245 6.483-.83 2.004-2.09 3.852-3.781 5.543-1.66 1.66-3.508 2.928-5.543 3.805-2.036.845-4.22 1.268-6.553 1.268Z" />
    <path fill="#767676" fill-rule="nonzero" d="M772.292 471.9v9.1h-33.086v-9.1h33.086Zm-.765-42.9v9.151h-31.149V429h31.15Zm-9.023 25.72v.535L743.794 481H735v-5.353L750.778 455 735 434.404V429h8.794l18.71 25.72Z" />
  </g>
</svg>
