<?xml version="1.0" encoding="UTF-8"?>
<svg width="1536px" height="1031px" viewBox="0 0 1536 1031" version="1.1" xmlns="http://www.w3.org/2000/svg" xmlns:xlink="http://www.w3.org/1999/xlink">
    <title>Artboard</title>
    <defs>
        <path d="M233.546314,448.944915 C239.721487,448.944915 247.857278,446.521186 257.953686,441.673729 L257.953686,441.673729 L257.953686,431 C247.39414,436.064972 239.258349,438.597458 233.546314,438.597458 C227.865154,438.379944 219.68305,435.847458 209,431 L209,431 L209,441.673729 C219.189036,446.521186 227.371141,448.944915 233.546314,448.944915 Z M258,475 L258,464.326271 C247.84184,459.478814 239.675173,457.055085 233.5,457.055085 C227.324827,457.055085 219.173598,459.478814 209.046314,464.326271 L209.046314,464.326271 L209.046314,475 C219.636736,469.935028 227.787965,467.402542 233.5,467.402542 C239.181159,467.620056 247.347826,470.152542 258,475 L258,475 Z" id="path-1"></path>
        <path d="M536.4,229.846154 C539.216,229.846154 541.52,228.996795 543.312,227.298077 C545.104,225.599359 546,223.403846 546,220.711538 C546,217.826923 545.104,215.487179 543.312,213.692308 C541.52,211.897436 539.216,211 536.4,211 C533.584,211 531.28,211.897436 529.488,213.692308 C527.696,215.487179 526.8,217.826923 526.8,220.711538 C526.8,223.403846 527.696,225.599359 529.488,227.298077 C531.28,228.996795 533.584,229.846154 536.4,229.846154 Z M507.6,229.846154 C510.416,229.846154 512.72,228.996795 514.512,227.298077 C516.304,225.599359 517.2,223.403846 517.2,220.711538 C517.2,217.826923 516.304,215.487179 514.512,213.692308 C512.72,211.897436 510.416,211 507.6,211 C504.784,211 502.48,211.897436 500.688,213.692308 C498.896,215.487179 498,217.826923 498,220.711538 C498,223.403846 498.896,225.599359 500.688,227.298077 C502.48,228.996795 504.784,229.846154 507.6,229.846154 Z M507.6,261 C510.416,261 512.72,260.150641 514.512,258.451923 C516.304,256.753205 517.2,254.557692 517.2,251.865385 C517.2,248.980769 516.304,246.641026 514.512,244.846154 C512.72,243.051282 510.416,242.153846 507.6,242.153846 C504.784,242.153846 502.48,243.051282 500.688,244.846154 C498.896,246.641026 498,248.980769 498,251.865385 C498,254.557692 498.896,256.753205 500.688,258.451923 C502.48,260.150641 504.784,261 507.6,261 Z M536.4,261 C539.216,261 541.52,260.150641 543.312,258.451923 C545.104,256.753205 546,254.557692 546,251.865385 C546,248.980769 545.104,246.641026 543.312,244.846154 C541.52,243.051282 539.216,242.153846 536.4,242.153846 C533.584,242.153846 531.28,243.051282 529.488,244.846154 C527.696,246.641026 526.8,248.980769 526.8,251.865385 C526.8,254.557692 527.696,256.753205 529.488,258.451923 C531.28,260.150641 533.584,261 536.4,261 Z" id="path-2"></path>
        <path d="M949.589883,711 L955.179765,705.410117 C956.776874,706.60012 958.483589,707.570912 960.29991,708.322493 C963.274917,709.575128 966.492623,710.201445 969.953026,710.201445 C973.41343,710.201445 976.631135,709.575128 979.606143,708.322493 C982.58115,707.069858 985.305631,705.222222 987.779584,702.779584 C990.253538,700.305631 992.101174,697.58115 993.322493,694.606143 C994.543812,691.631135 995.154472,688.436917 995.154472,685.023487 C995.154472,681.51611 994.543812,678.274917 993.322493,675.29991 C992.570912,673.514905 991.60012,671.80819 990.410117,670.179765 L990.410117,670.179765 L996,664.589883 L990.410117,659 L984.820235,664.589883 C983.19181,663.337248 981.453779,662.319482 979.606143,661.536585 C976.631135,660.283951 973.41343,659.657633 969.953026,659.657633 C966.492623,659.657633 963.274917,660.283951 960.29991,661.536585 C957.324902,662.78922 954.600422,664.652514 952.126468,667.126468 C949.652514,669.600422 947.804878,672.324902 946.583559,675.29991 C945.36224,678.274917 944.751581,681.51611 944.751581,685.023487 C944.751581,688.436917 945.36224,691.631135 946.583559,694.606143 C947.33514,696.453779 948.337248,698.19181 949.589883,699.820235 L949.589883,699.820235 L944,705.410117 L949.589883,711 Z M955.414634,693.995483 C954.882264,693.212587 954.443842,692.382716 954.099368,691.505872 C953.253839,689.501656 952.831075,687.340861 952.831075,685.023487 C952.831075,682.612165 953.24601,680.404396 954.075881,678.400181 C954.905751,676.395965 956.166215,674.548329 957.857272,672.857272 C959.517013,671.197531 961.364649,669.929238 963.400181,669.052394 C965.435712,668.206865 967.619994,667.784101 969.953026,667.784101 C972.286058,667.784101 974.47034,668.206865 976.505872,669.052394 C977.382716,669.428184 978.228245,669.882264 979.042457,670.414634 L979.042457,670.414634 L955.414634,693.995483 Z M969.953026,702.121951 C967.619994,702.121951 965.435712,701.699187 963.400181,700.853659 C962.554652,700.477868 961.756098,700.055104 961.004517,699.585366 L961.004517,699.585366 L984.585366,676.004517 C985.055104,676.787413 985.46221,677.585968 985.806685,678.400181 C986.652213,680.404396 987.074977,682.612165 987.074977,685.023487 C987.074977,687.340861 986.660042,689.501656 985.830172,691.505872 C985.000301,693.510087 983.739837,695.357724 982.04878,697.04878 C980.389039,698.708522 978.541403,699.976814 976.505872,700.853659 C974.47034,701.699187 972.286058,702.121951 969.953026,702.121951 Z" id="path-3"></path>
    </defs>
    <g id="Artboard" stroke="none" stroke-width="1" fill="none" fill-rule="evenodd" opacity="0.197206043">
        <g id="bg" transform="translate(0.000000, -0.000000)">
            <path d="M937.439529,618.957006 L1001.22548,618.957006 C1018.83948,618.957006 1033.11845,633.248622 1033.11845,650.878225 L1033.11845,714.720662 C1033.11845,732.350264 1018.83948,746.64188 1001.22548,746.64188 L937.439529,746.64188 C919.825526,746.64188 905.546555,732.350264 905.546555,714.720662 L905.546555,650.878225 C905.546555,633.248622 919.825526,618.957006 937.439529,618.957006 L937.439529,618.957006 L937.439529,618.957006 Z" id="Path" stroke="#E1E4E5" stroke-width="8" stroke-linecap="round" stroke-linejoin="round"></path>
            <path d="M200.321078,387.315126 L264.107026,387.315126 C281.721029,387.315126 296,401.606742 296,419.236344 L296,483.078781 C296,500.708384 281.721029,515 264.107026,515 L200.321078,515 C182.707075,515 168.428104,500.708384 168.428104,483.078781 L168.428104,419.236344 C168.428104,401.606742 182.707075,387.315126 200.321078,387.315126 L200.321078,387.315126 L200.321078,387.315126 Z" id="Path" stroke="#E1E4E5" stroke-width="8" stroke-linecap="round" stroke-linejoin="round"></path>
            <path d="M490.892974,172 L554.678922,172 C572.292925,172 586.571896,186.291616 586.571896,203.921219 L586.571896,267.778642 C586.571896,285.408244 572.292925,299.699861 554.678922,299.699861 L490.892974,299.699861 C473.278971,299.699861 459,285.408244 459,267.778642 L459,203.936205 C459,186.306603 473.278971,172.014986 490.892974,172.014986 L490.892974,172 L490.892974,172 Z" id="Path" stroke="#E1E4E5" stroke-width="8" stroke-linecap="round" stroke-linejoin="round"></path>
            <path d="M714.158765,235.857424 L969.332503,235.857424 C1004.56051,235.857424 1033.11845,264.440656 1033.11845,299.699861 L1033.11845,395.478503 C1033.11845,430.737707 1004.56051,459.32094 969.332503,459.32094 L905.546555,459.32094" id="Path" stroke="#E1E4E5" stroke-width="8" stroke-linecap="round" stroke-linejoin="round"></path>
            <path d="M777.959686,682.799443 L522.785948,682.799443 C487.557942,682.799443 459,654.21621 459,618.957006 L459,523.178364 C459,506.246297 465.720286,490.007723 477.682472,478.034944 C489.644657,466.062164 505.868863,459.335927 522.785948,459.335927 L586.571896,459.335927" id="Path" stroke="#E1E4E5" stroke-width="8" stroke-linecap="round" stroke-linejoin="round"></path>
            <path d="M1536,165 L1240.78595,164.799443 C1205.55794,164.799443 1177,136.21621 1177,100.957006 L1177,0" id="Path-Copy-4" stroke="#E1E4E5" stroke-width="8" stroke-linecap="round" stroke-linejoin="round"></path>
            <path d="M330,236 L138.785948,235.799443 C103.557942,235.799443 75,207.21621 75,171.957006 L75,126.178364 C75,108 69,96 58,83 C47,70 34,62 12,62 L0,62" id="Path-Copy" stroke="#E1E4E5" stroke-width="8" stroke-linecap="round" stroke-linejoin="round"></path>
            <path d="M540.979843,945.979843 L322.386226,946.399722 C287.15822,946.399722 258.600278,917.816489 258.600278,882.557284 L258.600278,786.778642 C258.600278,769.846575 248.600278,750.600278 239.600278,741.600278 C230.600278,732.600278 217.600278,722.600278 195.600278,722.600278 L147.979843,722.979843" id="Path-Copy-2" stroke="#E1E4E5" stroke-width="8" stroke-linecap="round" stroke-linejoin="round" transform="translate(344.479843, 834.500000) scale(-1, 1) rotate(-90.000000) translate(-344.479843, -834.500000) "></path>
            <path d="M1536,684.669625 L1317.40638,685.089504 C1282.17838,685.089504 1253.62044,656.506271 1253.62044,621.247067 L1253.62044,525.468425 C1253.62044,508.536357 1243.62044,489.290061 1234.62044,480.290061 C1225.62044,471.290061 1212.62044,461.290061 1190.62044,461.290061 L1123.29006,461" id="Path-Copy-3" stroke="#E1E4E5" stroke-width="8" stroke-linecap="round" stroke-linejoin="round" transform="translate(1329.645030, 573.044752) scale(-1, 1) rotate(-360.000000) translate(-1329.645030, -573.044752) "></path>
            <circle id="Oval" fill="#0070F3" fill-rule="nonzero" cx="130" cy="793" r="24"></circle>
            <circle id="Oval" fill="#0070F3" fill-rule="nonzero" transform="translate(1314.000000, 393.000000) scale(-1, 1) rotate(-180.000000) translate(-1314.000000, -393.000000) " cx="1314" cy="393" r="18"></circle>
            <circle id="Oval" fill="#0070F3" fill-rule="nonzero" transform="translate(1210.000000, 911.000000) scale(-1, 1) rotate(-180.000000) translate(-1210.000000, -911.000000) " cx="1210" cy="911" r="34"></circle>
            <circle id="Oval" fill="#E1E4E5" fill-rule="nonzero" transform="translate(730.000000, 861.000000) scale(-1, 1) rotate(-180.000000) translate(-730.000000, -861.000000) " cx="730" cy="861" r="16"></circle>
            <circle id="Oval" fill="#E1E4E5" fill-rule="nonzero" transform="translate(1201.000000, 543.000000) scale(-1, 1) rotate(-180.000000) translate(-1201.000000, -543.000000) " cx="1201" cy="543" r="16"></circle>
            <circle id="Oval" fill="#E1E4E5" fill-rule="nonzero" transform="translate(868.000000, 78.000000) scale(-1, 1) rotate(-180.000000) translate(-868.000000, -78.000000) " cx="868" cy="78" r="21"></circle>
            <circle id="Oval" fill="#E1E4E5" fill-rule="nonzero" transform="translate(372.097312, 176.890569) scale(-1, 1) rotate(-75.000000) translate(-372.097312, -176.890569) " cx="372.097312" cy="176.890569" r="23.2710825"></circle>
            <g id="≍" fill-rule="nonzero">
                <use fill="#000000" xlink:href="#path-1"></use>
                <use fill="#E1E4E5" xlink:href="#path-1"></use>
            </g>
            <g id="∷" fill-rule="nonzero">
                <use fill="#000000" xlink:href="#path-2"></use>
                <use fill="#E1E4E5" xlink:href="#path-2"></use>
            </g>
            <g id="∅" fill-rule="nonzero">
                <use fill="#000000" xlink:href="#path-3"></use>
                <use fill="#E1E4E5" xlink:href="#path-3"></use>
            </g>
        </g>
    </g>
</svg>